# xmcd CD database file
#
# Track frame offsets:
#	150
#	18532
#	36950
#	59480
#
# Disc length: 1181 seconds
#
# Revision: 0
# Processed by: cddbd v1.4PL0 Copyright (c) Steve Scherf et al.
# Submitted via: CDex 1.50
#
DISCID=31049b04
DTITLE=Mary Chapin Carpenter - He thinks he'll keep her
DYEAR=1993
DGENRE=Country
TTITLE0=He thinks he'll keep her
TTITLE1=He thinks he'll keep her (Live)
TTITLE2=I feel lucky (Live)
TTITLE3=Come on come on (Live)
EXTD=YEAR: 1993
EXTT0=
EXTT1=
EXTT2=
EXTT3=
PLAYORDER=
